<svg xmlns="http://www.w3.org/2000/svg" viewBox="0 0 1280 800" role="img" aria-label="AI organoid counter ongoing project visual">
  <rect width="1280" height="800" fill="#f0e8dc"/>
  <rect x="78" y="74" width="1124" height="652" rx="10" fill="#fffdf8" stroke="#d8d0c4"/>
  <text x="130" y="150" font-family="Georgia,serif" font-size="52" font-weight="700" fill="#171614">AI Organoid Counter</text>
  <text x="130" y="198" font-family="Arial,sans-serif" font-size="23" font-weight="700" fill="#9c7447" letter-spacing="3">ONGOING / SEGMENTATION TOOL</text>
  <g transform="translate(138 260)">
    <rect width="410" height="310" rx="8" fill="#f3eee6" stroke="#d8d0c4"/>
    <circle cx="96" cy="86" r="34" fill="#cbbca8"/>
    <circle cx="196" cy="128" r="48" fill="#b7c6af"/>
    <circle cx="296" cy="92" r="28" fill="#d9b78f"/>
    <circle cx="326" cy="216" r="54" fill="#a8bba6"/>
    <circle cx="116" cy="222" r="44" fill="#d1b59d"/>
  </g>
  <g transform="translate(642 260)">
    <rect width="410" height="310" rx="8" fill="#171614"/>
    <circle cx="96" cy="86" r="34" fill="none" stroke="#f7f4ee" stroke-width="8"/>
    <circle cx="196" cy="128" r="48" fill="none" stroke="#9fb092" stroke-width="8"/>
    <circle cx="296" cy="92" r="28" fill="none" stroke="#e2c59e" stroke-width="8"/>
    <circle cx="326" cy="216" r="54" fill="none" stroke="#9fb092" stroke-width="8"/>
    <circle cx="116" cy="222" r="44" fill="none" stroke="#e2c59e" stroke-width="8"/>
  </g>
  <path d="M568 414h52" stroke="#171614" stroke-width="5" stroke-linecap="round"/>
  <path d="M608 396l20 18-20 18" fill="none" stroke="#171614" stroke-width="5" stroke-linecap="round" stroke-linejoin="round"/>
  <text x="140" y="648" font-family="Arial,sans-serif" font-size="22" fill="#6f6a61">brightfield images</text>
  <text x="646" y="648" font-family="Arial,sans-serif" font-size="22" fill="#6f6a61">segmentation masks + counts</text>
</svg>
